# xmcd
#
# Track frame offsets: 
#        150
#        22033
#        40933
#        60428
#        79480
#        100467
#        118224
#        136746
#        156779
#        178749
#        201979
#        219804
#        240207
#        260170
#        279750
#        296100
#        314583
#
# Disc length: 4450 seconds
#
# Revision: 0
# Processed by: cddbd v1.5.2PL0 Copyright (c) Steve Scherf et al.
# Submitted via: ExactAudioCopyFreeDBPlugin 1.0
#
DISCID=fb116011
DTITLE=Shola Ama - Greatest Hits
DYEAR=2000
DGENRE=Soul
TTITLE0=You Might Beed Somebody
TTITLE1=Still Believe
TTITLE2=Imagine
TTITLE3=You're The One I Love
TTITLE4=Who's Loving My Baby
TTITLE5=Can't Hate You
TTITLE6=Lovely Affair
TTITLE7=In Return
TTITLE8=Deepest Hurt
TTITLE9=Surrender
TTITLE10=Much Love
TTITLE11=Celebrate
TTITLE12=Everything
TTITLE13=I Love Your Ways
TTITLE14=Queen For A Day
TTITLE15=Run To Me
TTITLE16=TABOO with Glamma Kid (Extended Soul Remix)
EXTD=
EXTT0=
EXTT1=
EXTT2=
EXTT3=
EXTT4=
EXTT5=
EXTT6=
EXTT7=
EXTT8=
EXTT9=
EXTT10=
EXTT11=
EXTT12=
EXTT13=
EXTT14=
EXTT15=
EXTT16=
PLAYORDER=
